<?xml version="1.0" encoding="UTF-8"?>
<svg version="1.1" xmlns="http://www.w3.org/2000/svg" width="144" height="144">
<path d="M0 0 C9.72535859 7.33694789 14.62209294 18.0758811 16.6875 29.875 C18.71617146 58.40993328 13.29706558 85.77574792 -5.24609375 108.21484375 C-11.80932054 115.30629805 -18.56224134 119.09814552 -28.3125 119.5 C-38.55071816 119.06739923 -45.25574299 114.8864582 -52.15625 107.5 C-67.20689507 89.17747557 -73.58654582 66.26860093 -73.75 42.9375 C-73.76023193 41.81230957 -73.77046387 40.68711914 -73.78100586 39.52783203 C-73.64868887 27.0012065 -70.48281808 13.04531808 -61.3125 3.875 C-44.17573393 -10.42195912 -18.90592002 -11.91833706 0 0 Z " fill="#3D484E" transform="translate(100.3125,16.125)"/>
<path d="M0 0 C0.66 0 1.32 0 2 0 C2.31130859 0.8353125 2.31130859 0.8353125 2.62890625 1.6875 C7.80393469 14.50598048 18.12133465 21.19067936 29 29 C27.17425631 33.01436811 25.49401821 35.89223358 22.125 38.75 C21.46757813 39.32234375 20.81015625 39.8946875 20.1328125 40.484375 C17.84472108 42.11034472 15.63709072 43.06277612 13 44 C2.84662433 30.59360105 -2.86661361 19.53294868 -0.5 2.375 C-0.335 1.59125 -0.17 0.8075 0 0 Z " fill="#F9F9FA" transform="translate(34,49)"/>
<path d="M0 0 C0.66 0 1.32 0 2 0 C4.87722751 10.31591327 2.30473316 20.4965679 -2.4609375 29.875 C-4.98638723 34.18236604 -7.72374085 38.21970098 -11 42 C-14.91327088 40.64940209 -17.59720322 38.93151564 -20.6875 36.1875 C-21.45449219 35.52105469 -22.22148438 34.85460937 -23.01171875 34.16796875 C-25.12045759 31.86865626 -26.03889586 29.94498757 -27 27 C-26.23816406 26.443125 -25.47632812 25.88625 -24.69140625 25.3125 C-11.05056832 15.39675811 -11.05056832 15.39675811 -1.19140625 1.90625 C-0.79824219 1.2771875 -0.40507813 0.648125 0 0 Z " fill="#FAFBFB" transform="translate(108,51)"/>
<path d="M0 0 C2 1 2 1 2.7890625 3.1171875 C3.06492187 4.02726562 3.34078125 4.93734375 3.625 5.875 C5.93261179 12.51262493 9.59108121 17.58584773 14 23 C14.47953125 23.60585937 14.9590625 24.21171875 15.453125 24.8359375 C16.75589296 26.42534205 16.75589296 26.42534205 19 28 C22.95710092 27.65819062 25.48036567 26.26514072 28.6875 24 C32.92405063 21.03797468 32.92405063 21.03797468 35 20 C33.68106727 24.19759919 32.09759162 28.09645985 30.1796875 32.0546875 C29.64472656 33.16328125 29.10976563 34.271875 28.55859375 35.4140625 C28.00300781 36.55617187 27.44742188 37.69828125 26.875 38.875 C26.03001953 40.62296875 26.03001953 40.62296875 25.16796875 42.40625 C23.78187239 45.27241534 22.39245478 48.13691978 21 51 C7.56923826 37.98273404 2.74294595 17.87727052 0 0 Z " fill="#F93C01" transform="translate(27,71)"/>
<path d="M0 0 C3.40576212 10.21728635 -4.5924813 26.98371942 -9.0859375 36.37890625 C-11.90470373 41.90528863 -15.34868019 46.99247569 -19 52 C-23.02961468 46.98167882 -25.48061338 41.14671231 -28.25 35.375 C-28.8171875 34.21742187 -29.384375 33.05984375 -29.96875 31.8671875 C-30.49984375 30.76375 -31.0309375 29.6603125 -31.578125 28.5234375 C-32.06700195 27.51200684 -32.55587891 26.50057617 -33.05957031 25.45849609 C-33.36991211 24.64719238 -33.68025391 23.83588867 -34 23 C-33.67 22.34 -33.34 21.68 -33 21 C-32.57589844 21.39832031 -32.15179688 21.79664062 -31.71484375 22.20703125 C-27.67232555 25.85862461 -24.11349698 28.12157254 -19 30 C-9.59614456 21.47546611 -3.77007432 12.10638772 0 0 Z " fill="#FA3D01" transform="translate(116,70)"/>
<path d="M0 0 C5.23159194 -0.16437288 9.30953677 0.07995631 14.3125 1.8125 C15.31925781 2.14894531 16.32601562 2.48539063 17.36328125 2.83203125 C20 4 20 4 23 7 C20.36 11.95 17.72 16.9 15 22 C6.96153846 22 6.96153846 22 2 19 C0 17 0 17 -0.1953125 13.0859375 C-0.18200376 11.51550649 -0.15813602 9.94513779 -0.125 8.375 C-0.11597656 7.57320312 -0.10695313 6.77140625 -0.09765625 5.9453125 C-0.07406223 3.96341477 -0.03819065 1.98167019 0 0 Z " fill="#FB3D01" transform="translate(75,9)"/>
<path d="M0 0 C0.16225719 2.75236274 0.2809328 5.49517476 0.375 8.25 C0.45041016 9.41595703 0.45041016 9.41595703 0.52734375 10.60546875 C0.58557439 12.87646353 0.54693004 14.79320741 0 17 C-4.75080684 21.36855801 -8.8278569 21.62593072 -15 22 C-17.64 16.72 -20.28 11.44 -23 6 C-14.45658267 1.72829133 -9.20503845 -0.11411205 0 0 Z " fill="#FB3D01" transform="translate(69,9)"/>
<path d="M0 0 C5.12277757 1.70759252 7.33630103 6.491735 10 11 C13.58630258 19.03974101 15.14826478 26.25237779 15 35 C12.7281497 31.59222455 11.4515982 28.18544527 10 24.375 C9.00504505 21.80352349 9.00504505 21.80352349 7 19 C5.02 23.455 5.02 23.455 3 28 C-1.44350783 25.77824609 -3.7819424 23.43611519 -6 19 C-7.11328255 11.68414321 -3.45747345 6.26667063 0 0 Z " fill="#FA3C01" transform="translate(102,19)"/>
<path d="M0 0 C4.37723394 4.98099035 7.39952109 9.77064139 7 16.5625 C6.26713465 21.31798185 4.50155507 23.74855601 1 27 C0.01 27 -0.98 27 -2 27 C-2.99 24.36 -3.98 21.72 -5 19 C-9.44266665 23.60133331 -11.04239987 29.05431026 -13 35 C-13.33 35 -13.66 35 -14 35 C-14.6644915 23.26065024 -10.59870784 12.43819097 -3.8125 2.9375 C-2 1 -2 1 0 0 Z " fill="#F93C02" transform="translate(41,19)"/>
<path d="M0 0 C2.56630764 3.15545998 4.23337229 6.38288114 5.91796875 10.078125 C6.44970703 11.23828125 6.98144531 12.3984375 7.52929688 13.59375 C8.08213576 14.8124526 8.63486881 16.03120321 9.1875 17.25 C9.75151231 18.48457648 10.31596098 19.71895371 10.88085938 20.953125 C12.25821114 23.96681776 13.6310771 26.98247154 15 30 C8.04998577 30 1.21354008 22.40357752 -3.5625 17.75 C-5.9794416 15.31798392 -7.60470439 13.13767968 -9 10 C-8.27683594 9.29423828 -8.27683594 9.29423828 -7.5390625 8.57421875 C-6.90742187 7.95160156 -6.27578125 7.32898437 -5.625 6.6875 C-4.68527344 5.76517578 -4.68527344 5.76517578 -3.7265625 4.82421875 C-1.81913393 2.91187472 -1.81913393 2.91187472 0 0 Z " fill="#F53D03" transform="translate(52,42)"/>
<path d="M0 0 C1.32 1.65 2.64 3.3 4 5 C5.64129283 6.56505541 5.64129283 6.56505541 7.25 7.8125 C8.1575 8.534375 9.065 9.25625 10 10 C4.53377053 19.11038246 -3.20307035 25.23152154 -12 31 C-12.66 30.67 -13.32 30.34 -14 30 C-7.07 15.15 -7.07 15.15 0 0 Z " fill="#F73D03" transform="translate(91,42)"/>
<path d="M0 0 C3.26682906 1.4000696 3.44537869 2.37255028 4.8125 5.5625 C5.11542969 6.36558594 5.41835937 7.16867188 5.73046875 7.99609375 C6.5354685 10.28745563 6.5354685 10.28745563 8.625 12.125 C3.15945567 17.25829239 -1.55953021 21.125 -9.375 21.125 C-10.23598326 8.40158069 -10.23598326 8.40158069 -7 3.875 C-3.47575567 0.18293451 -3.47575567 0.18293451 0 0 Z " fill="#FA3C01" transform="translate(84.375,113.875)"/>
<path d="M0 0 C4.26667783 0.49640019 5.66540047 0.67994828 8.875 3.75 C12.27929693 8.938018 11.40226302 15.05544648 11 21 C4.43502225 20.72063924 0.07471023 18.10550592 -5 14 C-5.33 13.34 -5.66 12.68 -6 12 C-4.78515625 9.1796875 -4.78515625 9.1796875 -3.0625 5.875 C-2.49660156 4.77929688 -1.93070313 3.68359375 -1.34765625 2.5546875 C-0.90292969 1.71164063 -0.45820312 0.86859375 0 0 Z " fill="#FB3D01" transform="translate(58,114)"/>
<path d="M0 0 C0 9.57 0 19.14 0 29 C-2.31565947 25.91245405 -3.74530348 23.66279213 -5.26171875 20.234375 C-5.85629883 18.90019531 -5.85629883 18.90019531 -6.46289062 17.5390625 C-7.06907227 16.15847656 -7.06907227 16.15847656 -7.6875 14.75 C-8.10322266 13.81414063 -8.51894531 12.87828125 -8.94726562 11.9140625 C-9.96939137 9.61134244 -10.98678844 7.30665285 -12 5 C-2.06059825 0 -2.06059825 0 0 0 Z " fill="#F93D02" transform="translate(69,33)"/>
<path d="M0 0 C5.94 1.485 5.94 1.485 12 3 C8.72028053 11.52727063 4.91517331 19.75174162 1 28 C0.67 28 0.34 28 0 28 C0 18.76 0 9.52 0 0 Z " fill="#FA3D01" transform="translate(75,34)"/>
<path d="M0 0 C1.96426666 2.94639999 3.5345824 5.90087274 5.125 9.0625 C5.66382812 10.12597656 6.20265625 11.18945312 6.7578125 12.28515625 C8 15 8 15 8 17 C5.33333333 18.33333333 2.66666667 19.66666667 0 21 C0 14.07 0 7.14 0 0 Z " fill="#F53D03" transform="translate(75,91)"/>
<path d="M0 0 C0.33 0 0.66 0 1 0 C1 6.93 1 13.86 1 21 C-1.64 19.68 -4.28 18.36 -7 17 C-4.74046856 11.29955774 -2.44502883 5.62356631 0 0 Z " fill="#F43D04" transform="translate(68,91)"/>
<path d="M0 0 C1.32342458 3.97027374 0.36639254 6.11656858 -1 10 C-1.99 10.495 -1.99 10.495 -3 11 C-2.69078116 9.54096742 -2.37751201 8.08279278 -2.0625 6.625 C-1.88847656 5.81289062 -1.71445313 5.00078125 -1.53515625 4.1640625 C-1 2 -1 2 0 0 Z " fill="#E4370A" transform="translate(116,70)"/>
</svg>
